<svg height="480pt" viewBox="0 0 480 480.33626" width="480pt" xmlns="http://www.w3.org/2000/svg"><path d="m408.277344 48.136719c4.15625-.011719 8.230468-1.117188 11.824218-3.199219l19.375 58.101562c-8.167968 8.050782-9.5 20.757813-3.175781 30.328126 6.324219 9.570312 18.535157 13.328124 29.144531 8.96875 10.609376-4.363282 16.652344-15.621094 14.417969-26.871094-2.230469-11.25-12.113281-19.351563-23.585937-19.328125-.726563.039062-1.449219.113281-2.167969.222656l-22.246094-66.75c-.042969-.121094-.128906-.195313-.175781-.3125 2.035156-9.003906-1.269531-18.375-8.503906-24.109375-7.234375-5.730469-17.117188-6.804688-25.414063-2.765625-8.296875 4.042969-13.542969 12.484375-13.492187 21.714844.011718 1.527343.164062 3.050781.457031 4.550781l-76.535156 91.847656c-1.292969-.242187-2.605469-.375-3.921875-.398437-9.851563-.027344-18.714844 5.988281-22.328125 15.15625-3.613281 9.164062-1.242188 19.609375 5.976562 26.316406l-14.617187 87.679687c-10.082032 3.042969-16.996094 12.316407-17.03125 22.847657 0 .191406.046875.367187.058594.550781l-97.683594 6.976562c-3.066406-8.300781-10.464844-14.226562-19.230469-15.414062-8.769531-1.1875-17.476563 2.5625-22.640625 9.746094s-5.941406 16.632812-2.023438 24.5625c-.367187.289062-.707031.609375-1.015624.960937l-93.9375 133.074219c-11.714844 2.164062-20.066407 12.59375-19.621094 24.5.449218 11.90625 9.5625 21.679688 21.410156 22.960938 11.84375 1.277343 22.832031-6.328126 25.8125-17.863282l107.28125-35.757812c4.023438 8.519531 12.671875 13.882812 22.09375 13.699218 9.421875-.183593 17.855469-5.878906 21.542969-14.546874l139.027343 29.269531c3.152344 10.753906 13.34375 17.878906 24.523438 17.15625 11.183594-.726563 20.367188-9.109375 22.105469-20.179688 1.738281-11.070312-4.433594-21.867187-14.855469-25.984375l6.226562-49.824218c.308594 0 .605469.089843.925782.089843 13.253906 0 24-10.746093 24-24 0-13.257812-10.746094-24-24-24-3.609375.023438-7.167969.871094-10.398438 2.480469-.242187-.3125-.511718-.605469-.800781-.875l-63.199219-47.382812c1.554688-3.1875 2.375-6.679688 2.398438-10.222657-.007813-9.71875-5.878906-18.46875-14.863282-22.167969l13.664063-81.929687c.398437 0 .800781.121094 1.199219.121094 9.394531.050781 17.941406-5.410157 21.84375-13.953125 3.902344-8.542969 2.433594-18.582032-3.753906-25.648438l71.261718-85.519531c4.175782 3.296875 9.332032 5.097656 14.648438 5.121094zm56 72c0 4.417969-3.582032 8-8 8-4.417969 0-8-3.582031-8-8s3.582031-8 8-8c4.417968 0 8 3.582031 8 8zm-184 144c4.417968 0 8 3.582031 8 8s-3.582032 8-8 8c-4.417969 0-8-3.582031-8-8s3.582031-8 8-8zm-144 16c4.417968 0 8 3.582031 8 8s-3.582032 8-8 8c-4.417969 0-8-3.582031-8-8s3.582031-8 8-8zm-112 184c-4.417969 0-8-3.582031-8-8s3.582031-8 8-8c4.417968 0 8 3.582031 8 8s-3.582032 8-8 8zm152-40c-4.417969 0-8-3.582031-8-8s3.582031-8 8-8c4.417968 0 8 3.582031 8 8s-3.582032 8-8 8zm184 32c-4.417969 0-8-3.582031-8-8s3.582031-8 8-8c4.417968 0 8 3.582031 8 8s-3.582032 8-8 8zm-7.199219-30.769531c-6.636719 2.085937-12.046875 6.945312-14.832031 13.320312l-139.039063-29.261719c-2.972656-10.355469-12.511719-17.433593-23.28125-17.28125-10.773437.15625-20.105469 7.507813-22.777343 17.945313l-107.269532 35.757812c-1.941406-4.074218-4.992187-7.523437-8.800781-9.945312l89.015625-126.117188c3.175781 1.53125 6.65625 2.335938 10.183594 2.351563 10.3125-.035157 19.445312-6.664063 22.671875-16.457031l103.679687-7.433594c4.507813 5.003906 10.917969 7.867187 17.648438 7.890625 3.613281-.019531 7.167968-.871094 10.402344-2.480469.242187.3125.507812.609375.796874.878906l63.203126 47.375c-4.589844 9.425782-2.402344 20.742188 5.367187 27.777344zm23.199219-81.230469c4.417968 0 8 3.582031 8 8s-3.582032 8-8 8c-4.417969 0-8-3.582031-8-8s3.582031-8 8-8zm32-328c4.417968 0 8 3.582031 8 8s-3.582032 8-8 8c-4.417969 0-8-3.582031-8-8s3.582031-8 8-8zm-104 136c-4.417969 0-8-3.582031-8-8s3.582031-8 8-8c4.417968 0 8 3.582031 8 8s-3.582032 8-8 8zm0 0"/><path d="m376.277344 200.136719c-4.417969 0-8 3.582031-8 8-4.417969 0-8 3.582031-8 8s3.582031 8 8 8c0 4.417969 3.582031 8 8 8 4.417968 0 8-3.582031 8-8 4.417968 0 8-3.582031 8-8s-3.582032-8-8-8c0-4.417969-3.582032-8-8-8zm0 0"/><path d="m10.679688 21.847656c-4.464844 9.144532-2.632813 20.113282 4.5625 27.308594 7.195312 7.195312 18.164062 9.027344 27.308593 4.5625l6.695313 6.695312c3.140625 3.035157 8.128906 2.992188 11.214844-.09375 3.085937-3.085937 3.128906-8.078124.097656-11.214843l-6.679688-6.699219c4.417969-9.140625 2.566406-20.078125-4.613281-27.253906-7.183594-7.179688-18.121094-9.023438-27.257813-4.601563l-6.699218-6.695312c-3.136719-3.03125-8.128906-2.988281-11.214844.097656s-3.128906 8.074219-.09375 11.214844zm27.238281 4.609375c2.714843 2.683594 3.152343 6.914063 1.046875 10.101563-2.109375 3.183594-6.171875 4.4375-9.707032 2.988281-3.535156-1.449219-5.550781-5.195313-4.816406-8.941406.734375-3.75 4.015625-6.453125 7.835938-6.460938 2.121094-.003906 4.15625.839844 5.65625 2.335938zm0 0"/><path d="m40.277344 192.136719c0 13.253906 10.746094 24 24 24s24-10.746094 24-24c0-13.253907-10.746094-24-24-24s-24 10.746093-24 24zm24-8c4.417968 0 8 3.582031 8 8s-3.582032 8-8 8c-4.417969 0-8-3.582031-8-8s3.582031-8 8-8zm0 0"/><path d="m170.621094 109.792969c3.125 3.121093 8.1875 3.121093 11.3125 0l2.34375-2.34375 2.34375 2.34375c2.007812 2.078125 4.984375 2.914062 7.78125 2.179687 2.796875-.730468 4.980468-2.914062 5.714844-5.710937.730468-2.796875-.101563-5.773438-2.183594-7.78125l-2.34375-2.34375 2.34375-2.34375c3.03125-3.140625 2.988281-8.128907-.097656-11.214844-3.085938-3.085937-8.074219-3.128906-11.214844-.097656l-2.34375 2.34375-2.34375-2.34375c-3.136719-3.03125-8.128906-2.988281-11.214844.097656s-3.128906 8.074219-.097656 11.214844l2.34375 2.34375-2.34375 2.34375c-3.121094 3.125-3.121094 8.1875 0 11.3125zm0 0"/><path d="m464.277344 265.617188v-9.480469c0-4.417969-3.582032-8-8-8-4.417969 0-8 3.582031-8 8v9.480469c-6.773438 2.417968-12.105469 7.746093-14.527344 14.519531h-9.472656c-4.417969 0-8 3.582031-8 8s3.582031 8 8 8h9.472656c2.425781 6.769531 7.757812 12.09375 14.527344 14.511719v9.472656c0 4.417968 3.582031 8 8 8 4.417968 0 8-3.582032 8-8v-9.472656c9.578125-3.34375 15.996094-12.378907 15.996094-22.523438 0-10.148438-6.417969-19.183594-15.996094-22.523438zm-8 30.519531c-4.417969 0-8-3.582031-8-8s3.582031-8 8-8c4.417968 0 8 3.582031 8 8s-3.582032 8-8 8zm0 0"/><g fill="#fbb040"><path d="m40.277344 456.289062c0 8.835938-7.164063 16-16 16-8.835938 0-16-7.164062-16-16 0-8.835937 7.164062-16 16-16 8.835937 0 16 7.164063 16 16zm0 0"/><path d="m152.277344 288.289062c0 8.835938-7.164063 16-16 16-8.835938 0-16-7.164062-16-16 0-8.835937 7.164062-16 16-16 8.835937 0 16 7.164063 16 16zm0 0"/><path d="m192.277344 416.289062c0 8.835938-7.164063 16-16 16-8.835938 0-16-7.164062-16-16 0-8.835937 7.164062-16 16-16 8.835937 0 16 7.164063 16 16zm0 0"/><path d="m296.277344 272.289062c0 8.835938-7.164063 16-16 16-8.835938 0-16-7.164062-16-16 0-8.835937 7.164062-16 16-16 8.835937 0 16 7.164063 16 16zm0 0"/><path d="m376.277344 448.289062c0 8.835938-7.164063 16-16 16-8.835938 0-16-7.164062-16-16 0-8.835937 7.164062-16 16-16 8.835937 0 16 7.164063 16 16zm0 0"/><path d="m392.277344 352.289062c0 8.835938-7.164063 16-16 16-8.835938 0-16-7.164062-16-16 0-8.835937 7.164062-16 16-16 8.835937 0 16 7.164063 16 16zm0 0"/><path d="m320.277344 144.289062c0 8.835938-7.164063 16-16 16-8.835938 0-16-7.164062-16-16 0-8.835937 7.164062-16 16-16 8.835937 0 16 7.164063 16 16zm0 0"/><path d="m424.277344 24.289062c0 8.835938-7.164063 16-16 16-8.835938 0-16-7.164062-16-16 0-8.835937 7.164062-16 16-16 8.835937 0 16 7.164063 16 16zm0 0"/><path d="m472.277344 120.289062c0 8.835938-7.164063 16-16 16-8.835938 0-16-7.164062-16-16 0-8.835937 7.164062-16 16-16 8.835937 0 16 7.164063 16 16zm0 0"/></g><path d="m48.277344 32.289062c0 8.835938-7.164063 16-16 16-8.835938 0-16-7.164062-16-16 0-8.835937 7.164062-16 16-16 8.835937 0 16 7.164063 16 16zm0 0" fill="#2f3c4f"/><path d="m80.277344 192.289062c0 8.835938-7.164063 16-16 16-8.835938 0-16-7.164062-16-16 0-8.835937 7.164062-16 16-16 8.835937 0 16 7.164063 16 16zm0 0" fill="#2f3c4f"/><path d="m472.277344 288.289062c0 8.835938-7.164063 16-16 16-8.835938 0-16-7.164062-16-16 0-8.835937 7.164062-16 16-16 8.835937 0 16 7.164063 16 16zm0 0" fill="#2f3c4f"/><path d="m408.277344 48.289062c4.15625-.027343 8.234375-1.144531 11.824218-3.242187l19.375 58.136719c-8.171874 8.046875-9.511718 20.753906-3.191406 30.328125 6.320313 9.570312 18.53125 13.335937 29.140625 8.980469 10.613281-4.359376 16.660157-15.613282 14.429688-26.867188-2.226563-11.25-12.105469-19.355469-23.578125-19.335938-.742188 0-1.4375.152344-2.167969.214844l-22.246094-66.75c-.042969-.113281-.128906-.195312-.175781-.304687 2.035156-9.003907-1.269531-18.375-8.503906-24.109375-7.234375-5.730469-17.117188-6.804688-25.414063-2.765625-8.296875 4.042969-13.542969 12.484375-13.492187 21.714843.011718 1.523438.164062 3.046876.457031 4.542969l-76.535156 91.847657c-1.296875-.234376-2.605469-.367188-3.921875-.390626-9.851563-.03125-18.714844 5.980469-22.332032 15.148438-3.613281 9.164062-1.242187 19.609375 5.980469 26.316406l-14.617187 87.6875c-10.082032 3.042969-16.996094 12.3125-17.03125 22.847656 0 .183594.046875.359376.058594.550782l-97.683594 6.976562c-3.066406-8.300781-10.464844-14.226562-19.230469-15.414062-8.769531-1.1875-17.476563 2.558594-22.640625 9.746094-5.164062 7.183593-5.941406 16.632812-2.023438 24.5625-.367187.289062-.707031.609374-1.015624.960937l-93.9375 133.0625c-11.714844 2.167969-20.066407 12.597656-19.621094 24.503906.449218 11.90625 9.5625 21.679688 21.410156 22.960938 11.84375 1.277343 22.832031-6.328125 25.8125-17.863281l107.273438-35.75c4.023437 8.519531 12.671874 13.882812 22.09375 13.699218 9.417968-.183594 17.855468-5.878906 21.542968-14.550781l139.027344 29.273437c3.140625 10.761719 13.328125 17.902344 24.515625 17.183594s20.378906-9.101562 22.121094-20.175781c1.738281-11.074219-4.433594-21.875-14.863281-25.992187l6.226562-49.832032c.308594 0 .605469.097656.925781.097656 13.253907 0 24-10.746093 24-24 0-13.257812-10.746093-24-24-24-3.609375.019532-7.167969.867188-10.398437 2.480469-.242188-.316406-.511719-.609375-.800782-.882812l-63.199218-47.375c1.554687-3.183594 2.375-6.679688 2.398437-10.222657-.007812-9.722656-5.875-18.476562-14.863281-22.175781l13.671875-81.945312c.398437 0 .800781.121093 1.199219.121093 9.394531.050782 17.941406-5.410156 21.84375-13.953124 3.902344-8.542969 2.433594-18.582032-3.753906-25.648438l71.261718-85.527344c4.171875 3.300782 9.332032 5.105469 14.648438 5.128906zm56 72c0 4.417969-3.582032 8-8 8-4.417969 0-8-3.582031-8-8 0-4.417968 3.582031-8 8-8 4.417968 0 8 3.582032 8 8zm-184 144c4.417968 0 8 3.582032 8 8 0 4.417969-3.582032 8-8 8-4.417969 0-8-3.582031-8-8 0-4.417968 3.582031-8 8-8zm-144 16c4.417968 0 8 3.582032 8 8 0 4.417969-3.582032 8-8 8-4.417969 0-8-3.582031-8-8 0-4.417968 3.582031-8 8-8zm-112 184c-4.417969 0-8-3.582031-8-8 0-4.417968 3.582031-8 8-8 4.417968 0 8 3.582032 8 8 0 4.417969-3.582032 8-8 8zm152-40c-4.417969 0-8-3.582031-8-8 0-4.417968 3.582031-8 8-8 4.417968 0 8 3.582032 8 8 0 4.417969-3.582032 8-8 8zm184 32c-4.417969 0-8-3.582031-8-8 0-4.417968 3.582031-8 8-8 4.417968 0 8 3.582032 8 8 0 4.417969-3.582032 8-8 8zm-7.199219-30.769531c-6.640625 2.078125-12.054687 6.941407-14.832031 13.320313l-139.039063-29.273438c-2.972656-10.351562-12.511719-17.429687-23.28125-17.277344-10.773437.15625-20.105469 7.507813-22.777343 17.941407l-107.269532 35.761719c-1.941406-4.074219-4.992187-7.515626-8.800781-9.9375l89.015625-126.117188c6.175781 2.976562 13.339844 3.132812 19.640625.429688 6.300781-2.703126 11.121094-8.007813 13.214844-14.535157l103.679687-7.40625c7.054688 7.925781 18.546875 10.148438 28.050782 5.421875.242187.3125.511718.605469.796874.878906l63.203126 47.378907c-4.585938 9.417969-2.398438 20.734375 5.367187 27.765625zm23.199219-81.230469c4.417968 0 8 3.582032 8 8 0 4.417969-3.582032 8-8 8-4.417969 0-8-3.582031-8-8 0-4.417968 3.582031-8 8-8zm32-328c4.417968 0 8 3.582032 8 8 0 4.417969-3.582032 8-8 8-4.417969 0-8-3.582031-8-8 0-4.417968 3.582031-8 8-8zm-104 136c-4.417969 0-8-3.582031-8-8 0-4.417968 3.582031-8 8-8 4.417968 0 8 3.582032 8 8 0 4.417969-3.582032 8-8 8zm0 0"/><path d="m376.277344 200.289062c-4.417969 0-8 3.582032-8 8-4.417969 0-8 3.582032-8 8 0 4.417969 3.582031 8 8 8 0 4.417969 3.582031 8 8 8 4.417968 0 8-3.582031 8-8 4.417968 0 8-3.582031 8-8 0-4.417968-3.582032-8-8-8 0-4.417968-3.582032-8-8-8zm0 0"/><path d="m10.679688 22.015625c-4.4375 9.140625-2.589844 20.085937 4.597656 27.265625s18.136718 9.011719 27.273437 4.566406l6.695313 6.703125c3.15625 2.867188 8.007812 2.753907 11.027344-.257812 3.019531-3.011719 3.144531-7.863281.285156-11.027344l-6.679688-6.699219c4.414063-9.140625 2.5625-20.074218-4.617187-27.25-7.179688-7.179687-18.113281-9.027344-27.253907-4.613281l-6.699218-6.695313c-3.136719-3.03125-8.128906-2.988281-11.214844.097657-3.085938 3.085937-3.128906 8.074219-.09375 11.214843zm27.253906 4.632813c2.695312 2.703124 3.105468 6.933593.980468 10.101562-2.125 3.171875-6.195312 4.398438-9.71875 2.933594-3.523437-1.464844-5.519531-5.214844-4.769531-8.957032.746094-3.742187 4.035157-6.433593 7.851563-6.429687 2.125 0 4.15625.847656 5.65625 2.351563zm0 0"/><path d="m40.277344 192.289062c0 13.253907 10.746094 24 24 24s24-10.746093 24-24c0-13.257812-10.746094-24-24-24s-24 10.742188-24 24zm24-8c4.417968 0 8 3.582032 8 8 0 4.417969-3.582032 8-8 8-4.417969 0-8-3.582031-8-8 0-4.417968 3.582031-8 8-8zm0 0"/><path d="m170.621094 109.945312c3.125 3.121094 8.1875 3.121094 11.3125 0l2.34375-2.34375 2.34375 2.34375c3.15625 2.90625 8.039062 2.808594 11.074218-.222656 3.035157-3.03125 3.140626-7.917968.238282-11.074218l-2.34375-2.34375 2.34375-2.34375c2.082031-2.007813 2.914062-4.984376 2.183594-7.78125-.734376-2.796876-2.917969-4.980469-5.714844-5.714844-2.796875-.730469-5.773438.101562-7.78125 2.183594l-2.34375 2.328124-2.34375-2.34375c-2.007813-2.082031-4.984375-2.914062-7.78125-2.183593-2.796875.734375-4.980469 2.917969-5.710938 5.714843-.734375 2.796876.101563 5.769532 2.179688 7.78125l2.34375 2.34375-2.34375 2.34375c-3.121094 3.125-3.121094 8.1875 0 11.3125zm0 0"/><path d="m464.277344 265.761719v-9.472657c0-4.417968-3.582032-8-8-8-4.417969 0-8 3.582032-8 8v9.472657c-6.773438 2.417969-12.105469 7.75-14.527344 14.527343h-9.472656c-4.417969 0-8 3.582032-8 8 0 4.417969 3.582031 8 8 8h9.472656c2.421875 6.773438 7.753906 12.105469 14.527344 14.527344v9.472656c0 4.417969 3.582031 8 8 8 4.417968 0 8-3.582031 8-8v-9.472656c9.585937-3.339844 16.007812-12.378906 16.007812-22.527344 0-10.152343-6.421875-19.191406-16.007812-22.527343zm-8 30.527343c-4.417969 0-8-3.582031-8-8 0-4.417968 3.582031-8 8-8 4.417968 0 8 3.582032 8 8 0 4.417969-3.582032 8-8 8zm0 0"/></svg>