<svg id="_x31_px" enable-background="new 0 0 24 24" height="512" viewBox="0 0 24 24" width="512" xmlns="http://www.w3.org/2000/svg"><g><path d="m9 24c-1.103 0-2-.897-2-2s.897-2 2-2 2 .897 2 2-.897 2-2 2zm0-3c-.552 0-1 .449-1 1s.448 1 1 1 1-.449 1-1-.448-1-1-1z"/></g><g><path d="m19 23c-1.103 0-2-.897-2-2s.897-2 2-2 2 .897 2 2-.897 2-2 2zm0-3c-.552 0-1 .449-1 1s.448 1 1 1 1-.449 1-1-.448-1-1-1z"/></g><g><path d="m22 15c-1.103 0-2-.897-2-2s.897-2 2-2 2 .897 2 2-.897 2-2 2zm0-3c-.552 0-1 .449-1 1s.448 1 1 1 1-.449 1-1-.448-1-1-1z"/></g><g><path d="m11 17c-1.103 0-2-.897-2-2s.897-2 2-2 2 .897 2 2-.897 2-2 2zm0-3c-.552 0-1 .449-1 1s.448 1 1 1 1-.449 1-1-.448-1-1-1z"/></g><g><path d="m10 10c-1.103 0-2-.897-2-2s.897-2 2-2 2 .897 2 2-.897 2-2 2zm0-3c-.552 0-1 .449-1 1s.448 1 1 1 1-.449 1-1-.448-1-1-1z"/></g><g><path d="m2 10c-1.103 0-2-.897-2-2s.897-2 2-2 2 .897 2 2-.897 2-2 2zm0-3c-.552 0-1 .449-1 1s.448 1 1 1 1-.449 1-1-.448-1-1-1z"/></g><g><path d="m6 4c-1.103 0-2-.897-2-2s.897-2 2-2 2 .897 2 2-.897 2-2 2zm0-3c-.552 0-1 .449-1 1s.448 1 1 1 1-.449 1-1-.448-1-1-1z"/></g><g><path d="m19.53 20.1c-.059 0-.118-.01-.176-.032-.259-.097-.39-.385-.292-.644l1.95-5.2c.097-.259.386-.388.644-.292.259.097.39.385.292.644l-1.95 5.2c-.075.201-.266.324-.468.324z"/></g><g><path d="m9.41 21.07c-.045 0-.091-.006-.137-.019-.266-.076-.42-.353-.344-.618l1.18-4.14c.075-.266.348-.422.617-.344.266.076.42.353.344.618l-1.18 4.14c-.062.22-.262.363-.48.363z"/></g><g><path d="m10.489 22.35c-.254 0-.471-.192-.496-.45-.028-.275.173-.52.447-.547l7.02-.7c.274-.022.521.173.547.448.028.275-.173.52-.447.547l-7.02.7c-.017.001-.034.002-.051.002z"/></g><g><path d="m10.789 14.02c-.244 0-.458-.18-.494-.429l-.58-4.04c-.039-.273.15-.527.424-.566.266-.039.526.15.566.424l.58 4.04c.039.273-.15.527-.424.566-.024.004-.048.005-.072.005z"/></g><g><path d="m9.17 7.25c-.161 0-.319-.078-.416-.223l-2.34-3.51c-.153-.23-.091-.54.139-.693.227-.152.539-.092.693.139l2.34 3.51c.153.23.091.54-.139.693-.085.057-.181.084-.277.084z"/></g><g><path d="m2.83 7.26c-.096 0-.192-.027-.277-.084-.23-.154-.292-.464-.139-.694l2.34-3.51c.153-.23.466-.291.693-.139.229.153.292.463.139.693l-2.34 3.51c-.097.146-.255.224-.416.224z"/></g><g><path d="m12.469 15.23c-.236 0-.447-.169-.491-.411-.049-.271.132-.532.403-.581l8.061-1.46c.264-.046.531.13.581.403.049.271-.132.532-.403.581l-8.061 1.46c-.031.006-.06.008-.09.008z"/></g></svg>